<mxfile host="app.diagrams.net" agent="Mozilla/5.0 (Windows NT 10.0; Win64; x64) AppleWebKit/537.36 (KHTML, like Gecko) Chrome/131.0.0.0 Safari/537.36" version="24.8.6">
  <diagram name="Page-1" id="2ca16b54-16f6-2749-3443-fa8db7711227">
    <mxGraphModel dx="733" dy="383" grid="1" gridSize="10" guides="1" tooltips="1" connect="1" arrows="1" fold="1" page="1" pageScale="1" pageWidth="1100" pageHeight="850" background="none" math="0" shadow="0">
      <root>
        <mxCell id="0" />
        <mxCell id="1" parent="0" />
        <mxCell id="OWJ4nM6wbmOWEGNQlrxz-52" style="edgeStyle=orthogonalEdgeStyle;rounded=0;orthogonalLoop=1;jettySize=auto;html=1;entryX=0;entryY=0.5;entryDx=0;entryDy=0;endArrow=ERoneToMany;endFill=0;startArrow=ERmandOne;startFill=0;" parent="1" source="OWJ4nM6wbmOWEGNQlrxz-14" target="OWJ4nM6wbmOWEGNQlrxz-46" edge="1">
          <mxGeometry relative="1" as="geometry" />
        </mxCell>
        <mxCell id="OWJ4nM6wbmOWEGNQlrxz-14" value="Contatos" style="shape=table;startSize=30;container=1;collapsible=1;childLayout=tableLayout;fixedRows=1;rowLines=0;fontStyle=1;align=center;resizeLast=1;html=1;" parent="1" vertex="1">
          <mxGeometry x="220" y="590" width="220" height="90" as="geometry" />
        </mxCell>
        <mxCell id="OWJ4nM6wbmOWEGNQlrxz-15" value="" style="shape=tableRow;horizontal=0;startSize=0;swimlaneHead=0;swimlaneBody=0;fillColor=none;collapsible=0;dropTarget=0;points=[[0,0.5],[1,0.5]];portConstraint=eastwest;top=0;left=0;right=0;bottom=1;" parent="OWJ4nM6wbmOWEGNQlrxz-14" vertex="1">
          <mxGeometry y="30" width="220" height="30" as="geometry" />
        </mxCell>
        <mxCell id="OWJ4nM6wbmOWEGNQlrxz-16" value="PK" style="shape=partialRectangle;connectable=0;fillColor=#eeeeee;top=0;left=0;bottom=0;right=0;fontStyle=1;overflow=hidden;whiteSpace=wrap;html=1;strokeColor=#36393d;" parent="OWJ4nM6wbmOWEGNQlrxz-15" vertex="1">
          <mxGeometry width="90" height="30" as="geometry">
            <mxRectangle width="90" height="30" as="alternateBounds" />
          </mxGeometry>
        </mxCell>
        <mxCell id="OWJ4nM6wbmOWEGNQlrxz-17" value="id" style="shape=partialRectangle;connectable=0;fillColor=#eeeeee;top=0;left=0;bottom=0;right=0;align=left;spacingLeft=6;fontStyle=5;overflow=hidden;whiteSpace=wrap;html=1;strokeColor=#36393d;" parent="OWJ4nM6wbmOWEGNQlrxz-15" vertex="1">
          <mxGeometry x="90" width="130" height="30" as="geometry">
            <mxRectangle width="130" height="30" as="alternateBounds" />
          </mxGeometry>
        </mxCell>
        <mxCell id="OWJ4nM6wbmOWEGNQlrxz-18" value="" style="shape=tableRow;horizontal=0;startSize=0;swimlaneHead=0;swimlaneBody=0;fillColor=none;collapsible=0;dropTarget=0;points=[[0,0.5],[1,0.5]];portConstraint=eastwest;top=0;left=0;right=0;bottom=0;" parent="OWJ4nM6wbmOWEGNQlrxz-14" vertex="1">
          <mxGeometry y="60" width="220" height="30" as="geometry" />
        </mxCell>
        <mxCell id="OWJ4nM6wbmOWEGNQlrxz-19" value="varchar(50)" style="shape=partialRectangle;connectable=0;top=0;left=0;bottom=0;right=0;editable=1;overflow=hidden;whiteSpace=wrap;html=1;" parent="OWJ4nM6wbmOWEGNQlrxz-18" vertex="1">
          <mxGeometry width="90" height="30" as="geometry">
            <mxRectangle width="90" height="30" as="alternateBounds" />
          </mxGeometry>
        </mxCell>
        <mxCell id="OWJ4nM6wbmOWEGNQlrxz-20" value="Nome" style="shape=partialRectangle;connectable=0;top=0;left=0;bottom=0;right=0;align=left;spacingLeft=6;overflow=hidden;whiteSpace=wrap;html=1;" parent="OWJ4nM6wbmOWEGNQlrxz-18" vertex="1">
          <mxGeometry x="90" width="130" height="30" as="geometry">
            <mxRectangle width="130" height="30" as="alternateBounds" />
          </mxGeometry>
        </mxCell>
        <mxCell id="OWJ4nM6wbmOWEGNQlrxz-27" value="" style="edgeStyle=entityRelationEdgeStyle;fontSize=12;html=1;endArrow=ERoneToMany;rounded=0;entryX=0;entryY=0.5;entryDx=0;entryDy=0;startArrow=ERmandOne;startFill=0;" parent="1" target="OWJ4nM6wbmOWEGNQlrxz-32" edge="1">
          <mxGeometry width="100" height="100" relative="1" as="geometry">
            <mxPoint x="440" y="630" as="sourcePoint" />
            <mxPoint x="540" y="530" as="targetPoint" />
          </mxGeometry>
        </mxCell>
        <mxCell id="OWJ4nM6wbmOWEGNQlrxz-28" value="Telefones" style="shape=table;startSize=30;container=1;collapsible=1;childLayout=tableLayout;fixedRows=1;rowLines=0;fontStyle=1;align=center;resizeLast=1;html=1;whiteSpace=wrap;shadow=1;" parent="1" vertex="1">
          <mxGeometry x="570" y="510" width="180" height="145" as="geometry" />
        </mxCell>
        <mxCell id="OWJ4nM6wbmOWEGNQlrxz-29" value="" style="shape=tableRow;horizontal=0;startSize=0;swimlaneHead=0;swimlaneBody=0;fillColor=none;collapsible=0;dropTarget=0;points=[[0,0.5],[1,0.5]];portConstraint=eastwest;top=0;left=0;right=0;bottom=1;html=1;swimlaneFillColor=none;rounded=0;" parent="OWJ4nM6wbmOWEGNQlrxz-28" vertex="1">
          <mxGeometry y="30" width="180" height="30" as="geometry" />
        </mxCell>
        <mxCell id="OWJ4nM6wbmOWEGNQlrxz-30" value="PK" style="shape=partialRectangle;connectable=0;top=0;left=0;bottom=0;right=0;fontStyle=1;overflow=hidden;html=1;whiteSpace=wrap;fillColor=#eeeeee;strokeColor=#36393d;" parent="OWJ4nM6wbmOWEGNQlrxz-29" vertex="1">
          <mxGeometry width="60" height="30" as="geometry">
            <mxRectangle width="60" height="30" as="alternateBounds" />
          </mxGeometry>
        </mxCell>
        <mxCell id="OWJ4nM6wbmOWEGNQlrxz-31" value="id_telefone" style="shape=partialRectangle;connectable=0;top=0;left=0;bottom=0;right=0;align=left;spacingLeft=6;fontStyle=5;overflow=hidden;html=1;whiteSpace=wrap;fillColor=#eeeeee;strokeColor=#36393d;" parent="OWJ4nM6wbmOWEGNQlrxz-29" vertex="1">
          <mxGeometry x="60" width="120" height="30" as="geometry">
            <mxRectangle width="120" height="30" as="alternateBounds" />
          </mxGeometry>
        </mxCell>
        <mxCell id="OWJ4nM6wbmOWEGNQlrxz-32" value="" style="shape=tableRow;horizontal=0;startSize=0;swimlaneHead=0;swimlaneBody=0;fillColor=none;collapsible=0;dropTarget=0;points=[[0,0.5],[1,0.5]];portConstraint=eastwest;top=0;left=0;right=0;bottom=1;html=1;" parent="OWJ4nM6wbmOWEGNQlrxz-28" vertex="1">
          <mxGeometry y="60" width="180" height="25" as="geometry" />
        </mxCell>
        <mxCell id="OWJ4nM6wbmOWEGNQlrxz-33" value="FK" style="shape=partialRectangle;connectable=0;fillColor=#f9f7ed;top=0;left=0;bottom=0;right=0;fontStyle=1;overflow=hidden;html=1;whiteSpace=wrap;strokeColor=#36393d;" parent="OWJ4nM6wbmOWEGNQlrxz-32" vertex="1">
          <mxGeometry width="60" height="25" as="geometry">
            <mxRectangle width="60" height="25" as="alternateBounds" />
          </mxGeometry>
        </mxCell>
        <mxCell id="OWJ4nM6wbmOWEGNQlrxz-34" value="id_contatos" style="shape=partialRectangle;connectable=0;fillColor=#f9f7ed;top=0;left=0;bottom=0;right=0;align=left;spacingLeft=6;fontStyle=5;overflow=hidden;html=1;whiteSpace=wrap;strokeColor=#36393d;" parent="OWJ4nM6wbmOWEGNQlrxz-32" vertex="1">
          <mxGeometry x="60" width="120" height="25" as="geometry">
            <mxRectangle width="120" height="25" as="alternateBounds" />
          </mxGeometry>
        </mxCell>
        <mxCell id="OWJ4nM6wbmOWEGNQlrxz-35" value="" style="shape=tableRow;horizontal=0;startSize=0;swimlaneHead=0;swimlaneBody=0;fillColor=none;collapsible=0;dropTarget=0;points=[[0,0.5],[1,0.5]];portConstraint=eastwest;top=0;left=0;right=0;bottom=0;html=1;" parent="OWJ4nM6wbmOWEGNQlrxz-28" vertex="1">
          <mxGeometry y="85" width="180" height="30" as="geometry" />
        </mxCell>
        <mxCell id="OWJ4nM6wbmOWEGNQlrxz-36" value="int" style="shape=partialRectangle;connectable=0;top=0;left=0;bottom=0;right=0;editable=1;overflow=hidden;html=1;whiteSpace=wrap;" parent="OWJ4nM6wbmOWEGNQlrxz-35" vertex="1">
          <mxGeometry width="60" height="30" as="geometry">
            <mxRectangle width="60" height="30" as="alternateBounds" />
          </mxGeometry>
        </mxCell>
        <mxCell id="OWJ4nM6wbmOWEGNQlrxz-37" value="DDD" style="shape=partialRectangle;connectable=0;top=0;left=0;bottom=0;right=0;align=left;spacingLeft=6;overflow=hidden;html=1;whiteSpace=wrap;" parent="OWJ4nM6wbmOWEGNQlrxz-35" vertex="1">
          <mxGeometry x="60" width="120" height="30" as="geometry">
            <mxRectangle width="120" height="30" as="alternateBounds" />
          </mxGeometry>
        </mxCell>
        <mxCell id="OwMc_66AKUeC7lq7OQW3-5" value="" style="shape=tableRow;horizontal=0;startSize=0;swimlaneHead=0;swimlaneBody=0;fillColor=none;collapsible=0;dropTarget=0;points=[[0,0.5],[1,0.5]];portConstraint=eastwest;top=0;left=0;right=0;bottom=0;" vertex="1" parent="OWJ4nM6wbmOWEGNQlrxz-28">
          <mxGeometry y="115" width="180" height="30" as="geometry" />
        </mxCell>
        <mxCell id="OwMc_66AKUeC7lq7OQW3-6" value="int" style="shape=partialRectangle;connectable=0;fillColor=default;top=0;left=0;bottom=0;right=0;editable=1;overflow=hidden;strokeColor=default;align=center;verticalAlign=middle;fontFamily=Helvetica;fontSize=12;fontColor=default;" vertex="1" parent="OwMc_66AKUeC7lq7OQW3-5">
          <mxGeometry width="60" height="30" as="geometry">
            <mxRectangle width="60" height="30" as="alternateBounds" />
          </mxGeometry>
        </mxCell>
        <mxCell id="OwMc_66AKUeC7lq7OQW3-7" value="Telefone" style="shape=partialRectangle;connectable=0;fillColor=default;top=0;left=0;bottom=0;right=0;align=left;spacingLeft=6;overflow=hidden;strokeColor=default;verticalAlign=middle;fontFamily=Helvetica;fontSize=12;fontColor=default;" vertex="1" parent="OwMc_66AKUeC7lq7OQW3-5">
          <mxGeometry x="60" width="120" height="30" as="geometry">
            <mxRectangle width="120" height="30" as="alternateBounds" />
          </mxGeometry>
        </mxCell>
        <mxCell id="OWJ4nM6wbmOWEGNQlrxz-42" value="Emails" style="shape=table;startSize=30;container=1;collapsible=1;childLayout=tableLayout;fixedRows=1;rowLines=0;fontStyle=1;align=center;resizeLast=1;html=1;whiteSpace=wrap;shadow=1;" parent="1" vertex="1">
          <mxGeometry x="569.94" y="700" width="180" height="115" as="geometry" />
        </mxCell>
        <mxCell id="OWJ4nM6wbmOWEGNQlrxz-43" value="" style="shape=tableRow;horizontal=0;startSize=0;swimlaneHead=0;swimlaneBody=0;fillColor=none;collapsible=0;dropTarget=0;points=[[0,0.5],[1,0.5]];portConstraint=eastwest;top=0;left=0;right=0;bottom=1;html=1;swimlaneFillColor=none;rounded=0;" parent="OWJ4nM6wbmOWEGNQlrxz-42" vertex="1">
          <mxGeometry y="30" width="180" height="30" as="geometry" />
        </mxCell>
        <mxCell id="OWJ4nM6wbmOWEGNQlrxz-44" value="PK" style="shape=partialRectangle;connectable=0;top=0;left=0;bottom=0;right=0;fontStyle=1;overflow=hidden;html=1;whiteSpace=wrap;fillColor=#eeeeee;strokeColor=#36393d;" parent="OWJ4nM6wbmOWEGNQlrxz-43" vertex="1">
          <mxGeometry width="80" height="30" as="geometry">
            <mxRectangle width="80" height="30" as="alternateBounds" />
          </mxGeometry>
        </mxCell>
        <mxCell id="OWJ4nM6wbmOWEGNQlrxz-45" value="id_email" style="shape=partialRectangle;connectable=0;top=0;left=0;bottom=0;right=0;align=left;spacingLeft=6;fontStyle=5;overflow=hidden;html=1;whiteSpace=wrap;fillColor=#eeeeee;strokeColor=#36393d;" parent="OWJ4nM6wbmOWEGNQlrxz-43" vertex="1">
          <mxGeometry x="80" width="100" height="30" as="geometry">
            <mxRectangle width="100" height="30" as="alternateBounds" />
          </mxGeometry>
        </mxCell>
        <mxCell id="OWJ4nM6wbmOWEGNQlrxz-46" value="" style="shape=tableRow;horizontal=0;startSize=0;swimlaneHead=0;swimlaneBody=0;fillColor=none;collapsible=0;dropTarget=0;points=[[0,0.5],[1,0.5]];portConstraint=eastwest;top=0;left=0;right=0;bottom=1;html=1;" parent="OWJ4nM6wbmOWEGNQlrxz-42" vertex="1">
          <mxGeometry y="60" width="180" height="25" as="geometry" />
        </mxCell>
        <mxCell id="OWJ4nM6wbmOWEGNQlrxz-47" value="FK" style="shape=partialRectangle;connectable=0;fillColor=#f9f7ed;top=0;left=0;bottom=0;right=0;fontStyle=1;overflow=hidden;html=1;whiteSpace=wrap;strokeColor=#36393d;" parent="OWJ4nM6wbmOWEGNQlrxz-46" vertex="1">
          <mxGeometry width="80" height="25" as="geometry">
            <mxRectangle width="80" height="25" as="alternateBounds" />
          </mxGeometry>
        </mxCell>
        <mxCell id="OWJ4nM6wbmOWEGNQlrxz-48" value="id_contatos" style="shape=partialRectangle;connectable=0;fillColor=#f9f7ed;top=0;left=0;bottom=0;right=0;align=left;spacingLeft=6;fontStyle=5;overflow=hidden;html=1;whiteSpace=wrap;strokeColor=#36393d;" parent="OWJ4nM6wbmOWEGNQlrxz-46" vertex="1">
          <mxGeometry x="80" width="100" height="25" as="geometry">
            <mxRectangle width="100" height="25" as="alternateBounds" />
          </mxGeometry>
        </mxCell>
        <mxCell id="OWJ4nM6wbmOWEGNQlrxz-49" value="" style="shape=tableRow;horizontal=0;startSize=0;swimlaneHead=0;swimlaneBody=0;fillColor=none;collapsible=0;dropTarget=0;points=[[0,0.5],[1,0.5]];portConstraint=eastwest;top=0;left=0;right=0;bottom=0;html=1;" parent="OWJ4nM6wbmOWEGNQlrxz-42" vertex="1">
          <mxGeometry y="85" width="180" height="30" as="geometry" />
        </mxCell>
        <mxCell id="OWJ4nM6wbmOWEGNQlrxz-50" value="varchar(100)" style="shape=partialRectangle;connectable=0;top=0;left=0;bottom=0;right=0;editable=1;overflow=hidden;html=1;whiteSpace=wrap;" parent="OWJ4nM6wbmOWEGNQlrxz-49" vertex="1">
          <mxGeometry width="80" height="30" as="geometry">
            <mxRectangle width="80" height="30" as="alternateBounds" />
          </mxGeometry>
        </mxCell>
        <mxCell id="OWJ4nM6wbmOWEGNQlrxz-51" value="Email" style="shape=partialRectangle;connectable=0;top=0;left=0;bottom=0;right=0;align=left;spacingLeft=6;overflow=hidden;html=1;whiteSpace=wrap;" parent="OWJ4nM6wbmOWEGNQlrxz-49" vertex="1">
          <mxGeometry x="80" width="100" height="30" as="geometry">
            <mxRectangle width="100" height="30" as="alternateBounds" />
          </mxGeometry>
        </mxCell>
        <mxCell id="OWJ4nM6wbmOWEGNQlrxz-55" value="Contatos" style="rounded=1;arcSize=10;whiteSpace=wrap;html=1;align=center;" parent="1" vertex="1">
          <mxGeometry x="259.94" y="240" width="130" height="50" as="geometry" />
        </mxCell>
        <mxCell id="OWJ4nM6wbmOWEGNQlrxz-56" value="tem" style="shape=rhombus;perimeter=rhombusPerimeter;whiteSpace=wrap;html=1;align=center;" parent="1" vertex="1">
          <mxGeometry x="439.94" y="230" width="80" height="40" as="geometry" />
        </mxCell>
        <mxCell id="OWJ4nM6wbmOWEGNQlrxz-68" style="edgeStyle=orthogonalEdgeStyle;rounded=0;orthogonalLoop=1;jettySize=auto;html=1;entryX=0;entryY=0.5;entryDx=0;entryDy=0;startArrow=oval;startFill=1;endArrow=none;endFill=0;" parent="1" source="OWJ4nM6wbmOWEGNQlrxz-67" target="OWJ4nM6wbmOWEGNQlrxz-55" edge="1">
          <mxGeometry relative="1" as="geometry">
            <Array as="points">
              <mxPoint x="249.94" y="305" />
              <mxPoint x="249.94" y="275" />
              <mxPoint x="259.94" y="275" />
            </Array>
          </mxGeometry>
        </mxCell>
        <mxCell id="OWJ4nM6wbmOWEGNQlrxz-67" value="id" style="text;strokeColor=none;fillColor=none;spacingLeft=4;spacingRight=4;overflow=hidden;rotatable=0;points=[[0,0.5],[1,0.5]];portConstraint=eastwest;fontSize=12;whiteSpace=wrap;html=1;glass=0;" parent="1" vertex="1">
          <mxGeometry x="269.94" y="290" width="60" height="30" as="geometry" />
        </mxCell>
        <mxCell id="OWJ4nM6wbmOWEGNQlrxz-70" style="edgeStyle=orthogonalEdgeStyle;rounded=0;orthogonalLoop=1;jettySize=auto;html=1;entryX=0;entryY=0.25;entryDx=0;entryDy=0;endArrow=none;endFill=0;startArrow=oval;startFill=0;" parent="1" source="OWJ4nM6wbmOWEGNQlrxz-69" target="OWJ4nM6wbmOWEGNQlrxz-55" edge="1">
          <mxGeometry relative="1" as="geometry">
            <mxPoint x="239.94" y="255" as="targetPoint" />
            <Array as="points">
              <mxPoint x="239.94" y="330" />
              <mxPoint x="239.94" y="252" />
            </Array>
          </mxGeometry>
        </mxCell>
        <mxCell id="OWJ4nM6wbmOWEGNQlrxz-69" value="Nome" style="text;strokeColor=none;fillColor=none;spacingLeft=4;spacingRight=4;overflow=hidden;rotatable=0;points=[[0,0.5],[1,0.5]];portConstraint=eastwest;fontSize=12;whiteSpace=wrap;html=1;glass=0;" parent="1" vertex="1">
          <mxGeometry x="259.94" y="315" width="60" height="30" as="geometry" />
        </mxCell>
        <mxCell id="OWJ4nM6wbmOWEGNQlrxz-77" value="Telefones" style="rounded=1;arcSize=10;whiteSpace=wrap;html=1;align=center;" parent="1" vertex="1">
          <mxGeometry x="569.94" y="180" width="130" height="50" as="geometry" />
        </mxCell>
        <mxCell id="OWJ4nM6wbmOWEGNQlrxz-78" style="edgeStyle=orthogonalEdgeStyle;rounded=0;orthogonalLoop=1;jettySize=auto;html=1;entryX=1;entryY=0.5;entryDx=0;entryDy=0;startArrow=oval;startFill=1;endArrow=none;endFill=0;" parent="1" source="OWJ4nM6wbmOWEGNQlrxz-79" target="OWJ4nM6wbmOWEGNQlrxz-77" edge="1">
          <mxGeometry relative="1" as="geometry">
            <Array as="points">
              <mxPoint x="699.94" y="185" />
            </Array>
          </mxGeometry>
        </mxCell>
        <mxCell id="OWJ4nM6wbmOWEGNQlrxz-79" value="id_telefone" style="text;strokeColor=none;fillColor=none;spacingLeft=4;spacingRight=4;overflow=hidden;rotatable=0;points=[[0,0.5],[1,0.5]];portConstraint=eastwest;fontSize=12;whiteSpace=wrap;html=1;glass=0;" parent="1" vertex="1">
          <mxGeometry x="729.94" y="170" width="70" height="30" as="geometry" />
        </mxCell>
        <mxCell id="OWJ4nM6wbmOWEGNQlrxz-80" style="edgeStyle=orthogonalEdgeStyle;rounded=0;orthogonalLoop=1;jettySize=auto;html=1;endArrow=none;endFill=0;startArrow=oval;startFill=0;exitX=0;exitY=0.5;exitDx=0;exitDy=0;" parent="1" source="OWJ4nM6wbmOWEGNQlrxz-81" edge="1">
          <mxGeometry relative="1" as="geometry">
            <mxPoint x="699.94" y="212" as="targetPoint" />
            <Array as="points">
              <mxPoint x="730" y="220" />
              <mxPoint x="700" y="220" />
            </Array>
            <mxPoint x="799.94" y="290" as="sourcePoint" />
          </mxGeometry>
        </mxCell>
        <mxCell id="OWJ4nM6wbmOWEGNQlrxz-81" value="Telefone" style="text;strokeColor=none;fillColor=none;spacingLeft=4;spacingRight=4;overflow=hidden;rotatable=0;points=[[0,0.5],[1,0.5]];portConstraint=eastwest;fontSize=12;whiteSpace=wrap;html=1;glass=0;" parent="1" vertex="1">
          <mxGeometry x="729.94" y="215" width="60" height="30" as="geometry" />
        </mxCell>
        <mxCell id="OWJ4nM6wbmOWEGNQlrxz-87" value="Email" style="rounded=1;arcSize=10;whiteSpace=wrap;html=1;align=center;" parent="1" vertex="1">
          <mxGeometry x="569.94" y="255" width="130" height="50" as="geometry" />
        </mxCell>
        <mxCell id="OWJ4nM6wbmOWEGNQlrxz-88" style="edgeStyle=orthogonalEdgeStyle;rounded=0;orthogonalLoop=1;jettySize=auto;html=1;entryX=1;entryY=0.5;entryDx=0;entryDy=0;startArrow=oval;startFill=1;endArrow=none;endFill=0;" parent="1" source="OWJ4nM6wbmOWEGNQlrxz-89" target="OWJ4nM6wbmOWEGNQlrxz-87" edge="1">
          <mxGeometry relative="1" as="geometry">
            <Array as="points">
              <mxPoint x="699.94" y="260" />
            </Array>
          </mxGeometry>
        </mxCell>
        <mxCell id="OWJ4nM6wbmOWEGNQlrxz-89" value="id_email" style="text;strokeColor=none;fillColor=none;spacingLeft=4;spacingRight=4;overflow=hidden;rotatable=0;points=[[0,0.5],[1,0.5]];portConstraint=eastwest;fontSize=12;whiteSpace=wrap;html=1;glass=0;" parent="1" vertex="1">
          <mxGeometry x="729.94" y="245" width="70" height="30" as="geometry" />
        </mxCell>
        <mxCell id="OWJ4nM6wbmOWEGNQlrxz-90" style="edgeStyle=orthogonalEdgeStyle;rounded=0;orthogonalLoop=1;jettySize=auto;html=1;endArrow=none;endFill=0;startArrow=oval;startFill=0;exitX=0;exitY=0.5;exitDx=0;exitDy=0;" parent="1" source="OWJ4nM6wbmOWEGNQlrxz-91" edge="1">
          <mxGeometry relative="1" as="geometry">
            <mxPoint x="699.94" y="287" as="targetPoint" />
            <Array as="points">
              <mxPoint x="729.94" y="290" />
              <mxPoint x="729.94" y="280" />
              <mxPoint x="699.94" y="280" />
            </Array>
            <mxPoint x="799.94" y="365" as="sourcePoint" />
          </mxGeometry>
        </mxCell>
        <mxCell id="OWJ4nM6wbmOWEGNQlrxz-91" value="Email" style="text;strokeColor=none;fillColor=none;spacingLeft=4;spacingRight=4;overflow=hidden;rotatable=0;points=[[0,0.5],[1,0.5]];portConstraint=eastwest;fontSize=12;whiteSpace=wrap;html=1;glass=0;" parent="1" vertex="1">
          <mxGeometry x="729.94" y="275" width="60" height="30" as="geometry" />
        </mxCell>
        <mxCell id="OWJ4nM6wbmOWEGNQlrxz-94" value="" style="endArrow=none;html=1;rounded=0;exitX=1;exitY=0;exitDx=0;exitDy=0;entryX=0;entryY=0.5;entryDx=0;entryDy=0;" parent="1" source="OWJ4nM6wbmOWEGNQlrxz-56" target="OWJ4nM6wbmOWEGNQlrxz-77" edge="1">
          <mxGeometry relative="1" as="geometry">
            <mxPoint x="389.94" y="285" as="sourcePoint" />
            <mxPoint x="549.94" y="285" as="targetPoint" />
            <Array as="points">
              <mxPoint x="509.94" y="205" />
            </Array>
          </mxGeometry>
        </mxCell>
        <mxCell id="OWJ4nM6wbmOWEGNQlrxz-95" value="N" style="resizable=0;html=1;whiteSpace=wrap;align=right;verticalAlign=bottom;" parent="OWJ4nM6wbmOWEGNQlrxz-94" connectable="0" vertex="1">
          <mxGeometry x="1" relative="1" as="geometry" />
        </mxCell>
        <mxCell id="OWJ4nM6wbmOWEGNQlrxz-96" value="" style="endArrow=none;html=1;rounded=0;entryX=0;entryY=0.6;entryDx=0;entryDy=0;entryPerimeter=0;exitX=1;exitY=1;exitDx=0;exitDy=0;" parent="1" source="OWJ4nM6wbmOWEGNQlrxz-56" target="OWJ4nM6wbmOWEGNQlrxz-87" edge="1">
          <mxGeometry relative="1" as="geometry">
            <mxPoint x="509.94" y="250" as="sourcePoint" />
            <mxPoint x="579.94" y="215" as="targetPoint" />
            <Array as="points">
              <mxPoint x="519.94" y="285" />
            </Array>
          </mxGeometry>
        </mxCell>
        <mxCell id="OWJ4nM6wbmOWEGNQlrxz-97" value="N" style="resizable=0;html=1;whiteSpace=wrap;align=right;verticalAlign=bottom;" parent="OWJ4nM6wbmOWEGNQlrxz-96" connectable="0" vertex="1">
          <mxGeometry x="1" relative="1" as="geometry" />
        </mxCell>
        <mxCell id="OWJ4nM6wbmOWEGNQlrxz-98" value="Modelo Conceitual - DER" style="text;html=1;align=center;verticalAlign=middle;whiteSpace=wrap;rounded=0;fontFamily=Courier New;horizontal=1;fontSize=18;fillColor=default;gradientColor=none;strokeColor=default;dashed=1;dashPattern=8 8;" parent="1" vertex="1">
          <mxGeometry x="350" y="100" width="270" height="40" as="geometry" />
        </mxCell>
        <mxCell id="OWJ4nM6wbmOWEGNQlrxz-99" value="Modelagem Lógica" style="text;html=1;align=center;verticalAlign=middle;whiteSpace=wrap;rounded=0;fontFamily=Courier New;horizontal=1;fontSize=18;fillColor=default;gradientColor=none;strokeColor=default;dashed=1;dashPattern=8 8;" parent="1" vertex="1">
          <mxGeometry x="360" y="440" width="230.06" height="40" as="geometry" />
        </mxCell>
        <mxCell id="OWJ4nM6wbmOWEGNQlrxz-100" value="" style="endArrow=none;html=1;rounded=0;entryX=0;entryY=0.5;entryDx=0;entryDy=0;" parent="1" target="OWJ4nM6wbmOWEGNQlrxz-56" edge="1">
          <mxGeometry relative="1" as="geometry">
            <mxPoint x="390" y="270" as="sourcePoint" />
            <mxPoint x="519.94" y="259.40999999999997" as="targetPoint" />
            <Array as="points">
              <mxPoint x="410" y="250" />
            </Array>
          </mxGeometry>
        </mxCell>
        <mxCell id="OWJ4nM6wbmOWEGNQlrxz-101" value="1" style="resizable=0;html=1;whiteSpace=wrap;align=right;verticalAlign=bottom;" parent="OWJ4nM6wbmOWEGNQlrxz-100" connectable="0" vertex="1">
          <mxGeometry x="1" relative="1" as="geometry" />
        </mxCell>
        <mxCell id="OwMc_66AKUeC7lq7OQW3-12" style="edgeStyle=orthogonalEdgeStyle;rounded=0;orthogonalLoop=1;jettySize=auto;html=1;endArrow=none;endFill=0;startArrow=oval;startFill=0;exitX=0;exitY=0.5;exitDx=0;exitDy=0;" edge="1" parent="1" source="OwMc_66AKUeC7lq7OQW3-13">
          <mxGeometry relative="1" as="geometry">
            <mxPoint x="700" y="200" as="targetPoint" />
            <Array as="points">
              <mxPoint x="700" y="205" />
            </Array>
            <mxPoint x="720" y="210" as="sourcePoint" />
          </mxGeometry>
        </mxCell>
        <mxCell id="OwMc_66AKUeC7lq7OQW3-13" value="DDD" style="text;strokeColor=none;fillColor=none;spacingLeft=4;spacingRight=4;overflow=hidden;rotatable=0;points=[[0,0.5],[1,0.5]];portConstraint=eastwest;fontSize=12;whiteSpace=wrap;html=1;glass=0;" vertex="1" parent="1">
          <mxGeometry x="732.41" y="192.5" width="47.59" height="25" as="geometry" />
        </mxCell>
      </root>
    </mxGraphModel>
  </diagram>
</mxfile>
